# xmcd
#
# Track frame offsets:
#	150
#	9356
#	20186
#	33970
#	47351
#	56532
#	65644
#	75922
#	87491
#	99348
#	111723
#	120572
#	132363
#	141740
#	153082
#	157292
#
# Disc length: 2241 seconds
#
# Revision: 0
# Processed by: cddbd v1.5.2PL0 Copyright (c) Steve Scherf et al.
# Submitted via: audiograbber 1.83.01
#
DISCID=d708bf10
DTITLE=Dennis  Schütze   - Will Handsome
DYEAR=2006
DGENRE=Country
TTITLE0=Live Fast, Love Hard, Die Young
TTITLE1=Cry, Cry, Cry
TTITLE2=Ramblin´Man
TTITLE3=Divorce Me C.O.D.
TTITLE4=Bop-A-Lena
TTITLE5=Amazing Steel (Part One)
TTITLE6=Why Baby Why
TTITLE7=Fat Gal
TTITLE8=I Am A Pilgrim
TTITLE9=Long Gone Lonesome Blues
TTITLE10=A Man Who Can´t Say No
TTITLE11=Dark As A Dungeon
TTITLE12=Amazing Steel (Part Two)
TTITLE13=Wary Blues From Waitin´
TTITLE14=Amazing Steel (Part Three)
TTITLE15=Papa´s Waltz
EXTD=
EXTT0=
EXTT1=
EXTT2=
EXTT3=
EXTT4=
EXTT5=
EXTT6=
EXTT7=
EXTT8=
EXTT9=
EXTT10=
EXTT11=
EXTT12=
EXTT13=
EXTT14=
EXTT15=
PLAYORDER=
